<svg width="158" height="158" viewBox="0 0 158 158" fill="none" xmlns="http://www.w3.org/2000/svg">
<circle cx="79" cy="79" r="79" fill="url(#paint0_linear_314_53)"/>
<rect x="11" y="11" width="136" height="136" rx="10" fill="url(#paint1_linear_314_53)"/>
<circle cx="79" cy="42" r="17" fill="white"/>
<mask id="mask0_314_53" style="mask-type:alpha" maskUnits="userSpaceOnUse" x="62" y="25" width="34" height="34">
<circle cx="79" cy="42" r="17" fill="white"/>
</mask>
<g mask="url(#mask0_314_53)">
<path d="M67.25 59C67.25 59 65 59 65 56.75C65 54.5 67.25 47.75 78.5 47.75C89.75 47.75 92 54.5 92 56.75C92 59 89.75 59 89.75 59H67.25ZM78.5 45.5C80.2902 45.5 82.0071 44.7888 83.273 43.523C84.5388 42.2571 85.25 40.5402 85.25 38.75C85.25 36.9598 84.5388 35.2429 83.273 33.977C82.0071 32.7112 80.2902 32 78.5 32C76.7098 32 74.9929 32.7112 73.727 33.977C72.4612 35.2429 71.75 36.9598 71.75 38.75C71.75 40.5402 72.4612 42.2571 73.727 43.523C74.9929 44.7888 76.7098 45.5 78.5 45.5Z" fill="#01008A"/>
</g>
<rect x="31" y="68" width="96" height="17" rx="2" fill="white"/>
<rect x="31" y="94" width="96" height="17" rx="2" fill="white"/>
<rect x="37" y="73" width="45" height="7" rx="1" fill="#01008A"/>
<rect x="37" y="98" width="7" height="7" rx="3.5" fill="#01008A"/>
<rect x="45" y="98" width="7" height="7" rx="3.5" fill="#01008A"/>
<rect x="53" y="98" width="7" height="7" rx="3.5" fill="#01008A"/>
<rect x="61" y="98" width="7" height="7" rx="3.5" fill="#01008A"/>
<rect x="69" y="98" width="7" height="7" rx="3.5" fill="#01008A"/>
<defs>
<linearGradient id="paint0_linear_314_53" x1="158" y1="79" x2="5.029e-08" y2="79" gradientUnits="userSpaceOnUse">
<stop stop-color="#3838B4"/>
<stop offset="1" stop-color="#171793"/>
</linearGradient>
<linearGradient id="paint1_linear_314_53" x1="147" y1="79" x2="11" y2="79" gradientUnits="userSpaceOnUse">
<stop stop-color="#FECC6D"/>
<stop offset="1" stop-color="#FFAA11"/>
</linearGradient>
</defs>
</svg>
