<svg class="img-fluid" id="outputsvg" xmlns="http://www.w3.org/2000/svg" style="transform: matrix(1.01591, 0, 0, 1.01591, 5.61898, 62.7003); transform-origin: 50% 50%; cursor: move; transition: none 0s ease 0s;" width="3040" height="916" viewBox="0 0 30400 9160">
	<g id="l6XQuHo4z0xHRV6VJNEozFF" fill="rgb(0,0,0)" style="transform: none;">
		<g style="transform: none;">
			<path id="pWbsWIdOX" d="M18040 6913 c-421 -41 -694 -102 -952 -213 l-87 -37 -73 -46 c-40 -26 -84 -55 -97 -66 l-24 -19 117 -428 c64 -236 119 -437 122 -447 l6 -18 20 3 21 3 17 50 c46 134 184 370 312 532 l61 78 111 110 111 111 95 68 95 68 100 49 100 49 90 25 90 26 97 6 97 6 93 -13 93 -12 82 -28 83 -27 56 -34 c31 -19 81 -56 110 -82 l53 -48 40 -64 40 -63 22 -64 23 -63 4 -112 4 -112 -17 -76 -17 -76 -38 -77 c-103 -205 -257 -351 -705 -666 -132 -93 -296 -212 -365 -264 l-125 -96 -120 -120 -120 -121 -57 -80 c-104 -148 -171 -303 -205 -474 l-17 -86 1 -135 1 -135 15 -90 c9 -49 28 -130 42 -180 l25 -90 70 -140 69 -140 66 -88 66 -88 82 -86 c98 -102 198 -184 328 -270 l97 -63 123 -60 c204 -98 387 -156 619 -196 l95 -16 228 -5 229 -5 126 11 c233 22 448 68 610 132 104 41 268 127 374 197 l88 57 -4 10 c-2 6 -66 216 -142 467 l-139 458 -17 0 -18 0 -4 -22 c-3 -13 -13 -61 -22 -108 l-16 -85 -35 -105 -35 -104 -48 -101 -48 -100 -60 -90 c-33 -49 -87 -122 -120 -160 l-59 -70 -69 -57 c-123 -100 -250 -167 -389 -204 l-70 -18 -140 0 -140 0 -79 22 -80 23 -76 40 -76 39 -62 53 -62 52 -42 55 -41 55 -34 70 -33 71 -16 74 -16 75 5 90 5 90 24 66 c13 36 41 96 63 135 l38 69 106 106 106 105 101 72 c56 39 211 140 345 223 306 189 459 291 575 385 l91 74 94 98 94 98 48 71 c87 130 139 255 173 408 l17 80 0 145 0 145 -17 90 c-9 50 -30 134 -47 188 l-30 99 -64 126 -65 127 -65 88 -66 88 -82 86 -82 85 -96 78 -95 77 -91 55 c-301 187 -631 300 -1003 343 l-125 15 -215 -2 c-118 0 -231 -3 -250 -5z"></path>
			<path id="pfsM1CDqs" d="M24200 6913 c-421 -41 -694 -102 -952 -213 l-87 -37 -73 -46 c-40 -26 -84 -55 -97 -66 l-24 -19 117 -428 c64 -236 119 -437 122 -447 l6 -18 20 3 21 3 17 50 c46 134 184 370 312 532 l61 78 111 110 111 111 95 68 95 68 100 49 100 49 90 25 90 26 97 6 97 6 93 -13 93 -12 82 -28 83 -27 56 -34 c31 -19 81 -56 110 -82 l53 -48 40 -64 40 -63 22 -64 23 -63 4 -112 4 -112 -17 -76 -17 -76 -38 -77 c-103 -205 -257 -351 -705 -666 -132 -93 -296 -212 -365 -264 l-125 -96 -120 -120 -120 -121 -57 -80 c-104 -148 -171 -303 -205 -474 l-17 -86 1 -135 1 -135 15 -90 c9 -49 28 -130 42 -180 l25 -90 70 -140 69 -140 66 -88 66 -88 82 -86 c98 -102 198 -184 328 -270 l97 -63 123 -60 c204 -98 387 -156 619 -196 l95 -16 228 -5 229 -5 126 11 c233 22 448 68 610 132 104 41 268 127 374 197 l88 57 -4 10 c-2 6 -66 216 -142 467 l-139 458 -17 0 -18 0 -4 -22 c-3 -13 -13 -61 -22 -108 l-16 -85 -35 -105 -35 -104 -48 -101 -48 -100 -60 -90 c-33 -49 -87 -122 -120 -160 l-59 -70 -69 -57 c-123 -100 -250 -167 -389 -204 l-70 -18 -140 0 -140 0 -79 22 -80 23 -76 40 -76 39 -62 53 -62 52 -42 55 -41 55 -34 70 -33 71 -16 74 -16 75 5 90 5 90 24 66 c13 36 41 96 63 135 l38 69 106 106 106 105 101 72 c56 39 211 140 345 223 306 189 459 291 575 385 l91 74 94 98 94 98 48 71 c87 130 139 255 173 408 l17 80 0 145 0 145 -17 90 c-9 50 -30 134 -47 188 l-30 99 -64 126 -65 127 -65 88 -66 88 -82 86 -82 85 -96 78 -95 77 -91 55 c-301 187 -631 300 -1003 343 l-125 15 -215 -2 c-118 0 -231 -3 -250 -5z"></path>
			<path id="pffpB6hGZ" d="M210 6862 l0 -18 116 -69 115 -69 104 -83 104 -83 90 -98 90 -97 642 -794 c352 -437 643 -800 645 -806 l5 -12 -341 -929 c-396 -1077 -415 -1126 -477 -1248 l-47 -91 -81 -80 -80 -80 -42 -19 -43 -19 0 -24 0 -23 1125 0 1125 0 0 8 c0 5 -6 15 -12 24 l-13 15 -57 23 -57 23 -48 36 -47 36 -27 40 -28 40 -10 42 -11 42 0 56 0 56 16 72 16 72 205 570 c113 314 208 576 212 582 l7 13 430 -518 c237 -284 443 -534 457 -555 14 -21 35 -63 47 -93 l20 -54 11 -70 11 -70 -12 -72 -11 -73 -28 -62 -29 -61 -41 -41 -41 -41 0 -20 0 -20 480 0 480 0 0 19 0 19 -96 57 c-53 31 -141 91 -197 133 l-102 76 -100 101 -100 100 -550 674 c-303 371 -556 684 -563 695 l-13 21 379 1035 c453 1236 464 1263 514 1364 70 140 154 235 260 294 l49 27 -3 20 -3 20 -1222 3 -1223 2 0 -23 0 -22 65 -23 c35 -13 99 -41 142 -61 l78 -38 55 -42 55 -41 28 -38 c38 -50 56 -94 63 -156 l6 -52 -12 -59 -12 -60 -246 -680 c-135 -374 -248 -683 -252 -688 l-7 -8 -532 647 -533 646 -24 41 c-13 23 -33 71 -45 107 l-20 65 0 80 0 80 10 48 11 48 26 51 26 51 44 47 44 47 -6 17 -6 16 -479 0 -479 0 0 -18z"></path>
			<path id="pZ6dnQr3O" d="M4671 6858 l0 -23 62 -40 62 -41 68 -84 67 -84 50 -101 49 -100 15 -55 c9 -30 153 -833 321 -1784 l305 -1728 0 -82 0 -81 -11 -64 c-5 -36 -19 -92 -30 -125 l-20 -61 -34 -50 -34 -50 -31 -18 -30 -18 0 -25 0 -24 1565 0 1565 0 0 18 c0 9 -7 242 -15 517 -8 275 -15 539 -15 588 l0 87 -24 0 -25 0 -12 -58 c-16 -77 -74 -242 -111 -316 -17 -34 -55 -99 -85 -146 l-55 -85 -102 -101 -101 -102 -80 -51 c-144 -95 -292 -154 -479 -192 l-101 -21 -136 -5 -137 -6 -11 54 c-6 30 -80 454 -166 944 -85 490 -157 898 -159 908 l-4 18 341 -3 342 -3 75 -40 75 -39 101 -101 101 -100 52 -80 c29 -44 70 -117 92 -162 l40 -83 19 0 20 0 0 8 c0 4 -54 302 -120 662 -66 360 -120 655 -120 657 0 2 -8 3 -19 3 l-18 0 -6 -82 -7 -83 -15 -60 -15 -60 -30 -62 -30 -61 -55 -56 -55 -56 -53 -26 c-28 -15 -74 -34 -102 -42 l-50 -15 -292 -4 -293 -5 0 9 c0 11 -408 2310 -415 2342 l-6 24 153 -6 153 -6 145 -25 145 -25 120 -36 c312 -95 542 -223 798 -444 l99 -85 73 -80 c95 -105 160 -187 231 -292 l58 -84 18 0 18 0 -1 18 c0 9 -89 280 -197 602 l-197 585 -1647 3 -1648 2 1 -22z"></path>
			<path id="pilAzY6r5" d="M8410 6858 l1 -23 61 -35 62 -35 69 -65 70 -65 50 -74 c91 -135 156 -305 196 -511 37 -189 469 -2682 490 -2825 11 -77 25 -187 31 -244 l10 -103 0 -147 0 -146 -10 -63 c-14 -81 -36 -146 -66 -192 l-25 -37 -24 -13 -25 -13 0 -24 0 -23 508 0 507 0 1100 1346 1099 1346 3 -9 c1 -4 75 -429 165 -943 l163 -935 0 -185 0 -185 -23 -75 c-13 -41 -38 -101 -54 -135 l-31 -60 -66 -65 -66 -65 3 -18 3 -17 425 0 424 0 0 19 0 18 -66 39 -67 39 -66 65 -67 65 -41 60 c-86 127 -154 294 -193 473 -10 48 -168 933 -350 1967 -182 1034 -333 1888 -336 1898 l-5 17 -32 0 -32 0 -1360 -1705 -1360 -1705 -7 22 c-13 42 -448 2562 -454 2635 l-7 71 13 99 12 98 25 80 25 80 46 89 45 88 39 49 38 48 0 26 0 25 -425 0 -425 0 0 -22z"></path>
			<path id="pYej36yO6" d="M12951 6858 l0 -23 62 -40 62 -41 68 -84 67 -84 50 -101 49 -100 15 -55 c9 -30 153 -833 321 -1784 l305 -1728 0 -82 0 -81 -11 -64 c-5 -36 -19 -92 -30 -125 l-20 -61 -34 -50 -34 -50 -31 -18 -30 -18 0 -25 0 -24 1565 0 1565 0 0 18 c0 9 -7 242 -15 517 -8 275 -15 539 -15 588 l0 87 -24 0 -25 0 -12 -58 c-16 -77 -74 -242 -111 -316 -17 -34 -55 -99 -85 -146 l-55 -85 -102 -101 -101 -102 -80 -51 c-144 -95 -292 -154 -479 -192 l-101 -21 -136 -5 -137 -6 -11 54 c-6 30 -80 454 -166 944 -85 490 -157 898 -159 908 l-4 18 341 -3 342 -3 75 -40 75 -39 101 -101 101 -100 52 -80 c29 -44 70 -117 92 -162 l40 -83 19 0 20 0 0 8 c0 4 -54 302 -120 662 -66 360 -120 655 -120 657 0 2 -8 3 -19 3 l-18 0 -6 -82 -7 -83 -15 -60 -15 -60 -30 -62 -30 -61 -55 -56 -55 -56 -53 -26 c-28 -15 -74 -34 -102 -42 l-50 -15 -292 -4 -293 -5 0 9 c0 11 -408 2310 -415 2342 l-6 24 153 -6 153 -6 145 -25 145 -25 120 -36 c312 -95 542 -223 798 -444 l99 -85 73 -80 c95 -105 160 -187 231 -292 l58 -84 18 0 18 0 -1 18 c0 9 -89 280 -197 602 l-197 585 -1647 3 -1648 2 1 -22z"></path>
			<path id="pQnvk2ZMs" d="M20561 6858 l0 -23 62 -40 62 -41 68 -84 67 -84 50 -101 49 -100 15 -55 c9 -30 153 -833 321 -1785 l305 -1730 0 -80 0 -80 -11 -64 c-5 -36 -19 -92 -30 -125 l-20 -61 -34 -50 -34 -50 -31 -18 -30 -18 0 -25 0 -24 975 0 975 0 0 19 0 20 -54 35 -53 36 -50 53 c-61 64 -119 150 -166 242 l-35 71 -21 69 -21 70 -295 1710 -296 1710 -6 90 -5 90 16 92 16 92 25 56 c13 31 38 73 54 94 l29 37 27 14 26 14 -3 20 -3 21 -972 3 -973 2 1 -22z"></path>
		</g>
	</g>
	<g id="l6icJCMRh6xfr1t1Est4Xqq" fill="rgb(255,255,255)" style="transform: none;">
		<g style="transform: none;">
			<path id="pTfthA54g" d="M18088 6913 c12 -2 30 -2 40 0 l17 5 -40 -1 -40 0 23 -4z"></path>
			<path id="paPVrdsUU" d="M18493 6913 c9 -2 25 -2 35 0 l17 5 -35 0 -35 0 18 -5z"></path>
			<path id="p2RBtAUvu" d="M24248 6913 c12 -2 30 -2 40 0 l17 5 -40 -1 -40 0 23 -4z"></path>
			<path id="pEcGSFaKc" d="M24653 6913 c9 -2 25 -2 35 0 l17 5 -35 0 -35 0 18 -5z"></path>
			<path id="pSFmGWMo" d="M6383 6753 c20 -2 54 -2 75 0 l37 4 -75 0 -75 0 38 -4z"></path>
			<path id="p12cTw7IXO" d="M14663 6753 c20 -2 54 -2 75 0 l37 4 -75 0 -75 0 38 -4z"></path>
			<path id="pUs6eY5wB" d="M4484 6718 l-29 -33 33 29 c17 17 32 31 32 33 0 8 -8 1 -36 -29z"></path>
			<path id="pC24o9MGY" d="M8620 6685 c19 -19 36 -35 39 -35 3 0 -10 16 -29 35 -19 19 -36 35 -39 35 -3 0 10 -16 29 -35z"></path>
			<path id="p05o3Emcq" d="M19173 6185 l0 -80 4 43 c2 23 2 59 0 80 l-4 37 0 -80z"></path>
			<path id="pYAZoVJKO" d="M25333 6185 l0 -80 4 43 c2 23 2 59 0 80 l-4 37 0 -80z"></path>
			<path id="pba2NTvDU" d="M18929 5633 l-34 -38 38 34 c34 33 42 41 34 41 -2 0 -19 -17 -38 -37z"></path>
			<path id="p1Bdc2BGrp" d="M25089 5633 l-34 -38 38 34 c34 33 42 41 34 41 -2 0 -19 -17 -38 -37z"></path>
			<path id="pmD0U0Xbo" d="M18849 5553 l-34 -38 38 34 c34 33 42 41 34 41 -2 0 -19 -17 -38 -37z"></path>
			<path id="pLf38bING" d="M25009 5553 l-34 -38 38 34 c34 33 42 41 34 41 -2 0 -19 -17 -38 -37z"></path>
			<path id="pk42mgE7Q" d="M20433 5225 l0 -70 4 38 c2 20 2 52 0 70 l-4 32 0 -70z"></path>
			<path id="pSdDfhWMH" d="M26593 5225 l0 -70 4 38 c2 20 2 52 0 70 l-4 32 0 -70z"></path>
			<path id="pt7ZXtYBs" d="M17839 4783 l-34 -38 38 34 c34 33 42 41 34 41 -2 0 -19 -17 -38 -37z"></path>
			<path id="p1F6245tjT" d="M23999 4783 l-34 -38 38 34 c34 33 42 41 34 41 -2 0 -19 -17 -38 -37z"></path>
			<path id="p16jgCoUnm" d="M17729 4673 l-34 -38 38 34 c34 33 42 41 34 41 -2 0 -19 -17 -38 -37z"></path>
			<path id="piRtzqXwv" d="M23889 4673 l-34 -38 38 34 c34 33 42 41 34 41 -2 0 -19 -17 -38 -37z"></path>
			<path id="pRqSR3II7" d="M6948 4273 c90 -2 234 -2 320 0 l157 3 -320 0 -320 0 163 -3z"></path>
			<path id="pgHqKhrkk" d="M15228 4273 c90 -2 234 -2 320 0 l157 3 -320 0 -320 0 163 -3z"></path>
			<path id="p8dMTPthp" d="M7725 4090 c27 -27 51 -50 54 -50 3 0 -17 23 -44 50 -27 28 -51 50 -54 50 -3 0 17 -22 44 -50z"></path>
			<path id="pVZvz7nHR" d="M16005 4090 c27 -27 51 -50 54 -50 3 0 -17 23 -44 50 -27 28 -51 50 -54 50 -3 0 17 -22 44 -50z"></path>
			<path id="p1FhpYsMBb" d="M17383 3845 l0 -60 4 33 c2 18 2 45 0 60 l-4 27 0 -60z"></path>
			<path id="p1GXpYmCoT" d="M23543 3845 l0 -60 4 33 c2 18 2 45 0 60 l-4 27 0 -60z"></path>
			<path id="pCDQt7wyf" d="M18780 3473 l-55 -58 58 55 c53 50 62 60 54 60 -1 0 -27 -26 -57 -57z"></path>
			<path id="p7QsfMxdW" d="M24940 3473 l-55 -58 58 55 c53 50 62 60 54 60 -1 0 -27 -26 -57 -57z"></path>
			<path id="pjpQyZBs9" d="M8572 3400 l0 -35 5 18 c2 9 2 25 0 35 l-5 17 0 -35z"></path>
			<path id="pEC2jhmpZ" d="M16852 3400 l0 -35 5 18 c2 9 2 25 0 35 l-5 17 0 -35z"></path>
			<path id="pTH1OX6ND" d="M8583 3060 l0 -75 4 38 c2 20 2 54 0 75 l-4 37 0 -75z"></path>
			<path id="py5FVHVvd" d="M16863 3060 l0 -75 4 38 c2 20 2 54 0 75 l-4 37 0 -75z"></path>
			<path id="prl5dQiNM" d="M12854 2840 l0 -95 3 48 c2 26 2 68 0 95 l-3 47 0 -95z"></path>
			<path id="pgwcU4FRa" d="M9453 2730 l0 -85 4 43 c2 23 2 61 0 85 l-4 42 0 -85z"></path>
			<path id="p3v2DwPjB" d="M8170 2723 l-65 -68 68 65 c37 35 67 66 67 67 0 8 -10 -2 -70 -64z"></path>
			<path id="pfc4KS35T" d="M16450 2723 l-65 -68 68 65 c62 60 72 70 64 70 -1 0 -32 -30 -67 -67z"></path>
			<path id="pGbZSqQkI" d="M8593 2685 l0 -80 4 43 c2 23 2 59 0 80 l-4 37 0 -80z"></path>
			<path id="pT3YbaPus" d="M16873 2685 l0 -80 4 43 c2 23 2 59 0 80 l-4 37 0 -80z"></path>
			<path id="p6tKhF1AV" d="M17880 2737 c0 -2 15 -16 33 -33 l32 -29 -29 33 c-28 30 -36 37 -36 29z"></path>
			<path id="pwWVQ0v0M" d="M24040 2737 c0 -2 15 -16 33 -33 l32 -29 -29 33 c-28 30 -36 37 -36 29z"></path>
			<path id="pReXMh9Cc" d="M1175 2378 l-40 -43 43 40 c39 36 47 45 39 45 -2 0 -21 -19 -42 -42z"></path>
			<path id="p1Eo0yh2hn" d="M23140 2397 c0 -2 15 -16 33 -33 l32 -29 -29 33 c-28 30 -36 37 -36 29z"></path>
			<path id="p1C3FEhxrI" d="M8603 2310 l0 -75 4 38 c2 20 2 54 0 75 l-4 37 0 -75z"></path>
			<path id="p1B4f3Jak4" d="M16883 2310 l0 -75 4 38 c2 20 2 54 0 75 l-4 37 0 -75z"></path>
			<path id="pnrIo4rS3" d="M7157 2343 c18 -2 50 -2 70 0 l38 4 -70 0 -70 0 32 -4z"></path>
			<path id="pRp9q2Pfe" d="M12674 2318 l-29 -33 33 29 c30 28 37 36 29 36 -2 0 -16 -15 -33 -32z"></path>
			<path id="p5NZPHCtR" d="M15437 2343 c18 -2 50 -2 70 0 l38 4 -70 0 -70 0 32 -4z"></path>
			<path id="p1FZ5OJHyG" d="M19163 2183 c9 -2 25 -2 35 0 l17 5 -35 0 -35 0 18 -5z"></path>
			<path id="pivuILYOn" d="M19568 2183 c12 -2 30 -2 40 0 l17 5 -40 -1 -40 0 23 -4z"></path>
			<path id="pp1sazL7o" d="M25323 2183 c9 -2 25 -2 35 0 l17 5 -35 0 -35 0 18 -5z"></path>
			<path id="p1D1ftMvot" d="M25728 2183 c12 -2 30 -2 40 0 l17 5 -40 -1 -40 0 23 -4z"></path>
		</g>
	</g>
</svg>