<?xml version="1.0" encoding="utf-8"?>
<!-- Generator: Adobe Illustrator 27.0.0, SVG Export Plug-In . SVG Version: 6.00 Build 0)  -->
<svg version="1.1" id="a-0" xmlns="http://www.w3.org/2000/svg" xmlns:xlink="http://www.w3.org/1999/xlink" x="0px" y="0px"
	 viewBox="0 0 192.5 231.3" style="enable-background:new 0 0 192.5 231.3;" xml:space="preserve">
<style type="text/css">
	.st0{fill:#211E60;}
	.st1{fill:#01008A;}
	.st2{display:none;fill:none;}
</style>
<g id="tight-bounds" transform="matrix(1,0,0,1,224.69921597128055,76.4)">
	<g>
		<g transform="matrix(1,0,0,1,0,397.39417778458983)">
			<g>
				<g>
					<g transform="matrix(1,0,0,1,0,0)">
						<path id="text-0" class="st0" d="M-215.5-250.2l9.1-21.6l-8.6-20.6h8.3l5.3,13.6h0.1l5.4-13.6h7.4l-8.6,20.6l9.1,21.6h-8.3
							l-5.7-14.7h-0.1l-5.8,14.7H-215.5z M-184.4-250.2v-42.2h21.4v6h-13.5v11.2h10.8v6h-10.8v13h13.5v6H-184.4z M-158.5-250.2
							v-42.2h9.8l7.6,25.3h0.1v-25.3h7v42.2h-8.1l-9.4-30.8h-0.1v30.8H-158.5z M-128.1-250.2v-42.2h21.4v6h-13.5v11.2h10.8v6h-10.8
							v13h13.5v6H-128.1z M-91.9-249.6c-3.8,0-6.7-0.9-8.6-2.7c-1.9-1.8-2.9-4.4-2.9-7.9l0,0v-2.4h7.4v2.9c0,2.7,1.4,4.1,4.1,4.1
							l0,0c1.3,0,2.3-0.3,3-1c0.7-0.7,1-1.7,1-3.2l0,0c0-1.8-0.5-3.3-1.4-4.7c-1-1.3-2.7-3-5.3-4.8l0,0c-3.2-2.4-5.5-4.6-6.8-6.5
							c-1.3-1.9-1.9-4.1-1.9-6.6l0,0c0-3.3,1-5.9,3-7.8c2-1.8,4.9-2.7,8.7-2.7l0,0c3.8,0,6.6,0.9,8.5,2.7c1.9,1.8,2.9,4.5,2.9,7.9
							l0,0v1.7h-7.4v-2.2c0-1.4-0.3-2.5-1-3.2c-0.7-0.7-1.6-1-2.9-1l0,0c-2.6,0-3.9,1.3-3.9,4l0,0c0,1.5,0.5,3,1.5,4.3
							c1,1.3,2.7,2.9,5.3,4.8l0,0c3.3,2.4,5.5,4.6,6.8,6.6c1.2,2,1.9,4.3,1.9,6.9l0,0c0,3.5-1,6.1-3,8
							C-85.1-250.6-88.1-249.6-91.9-249.6L-91.9-249.6z M-75.6-250.2v-42.2h7.8v42.2H-75.6z M-51.7-249.6c-3.8,0-6.7-0.9-8.6-2.7
							c-1.9-1.8-2.9-4.4-2.9-7.9l0,0v-2.4h7.4v2.9c0,2.7,1.4,4.1,4.1,4.1l0,0c1.3,0,2.3-0.3,3-1c0.7-0.7,1-1.7,1-3.2l0,0
							c0-1.8-0.5-3.3-1.4-4.7c-1-1.3-2.7-3-5.3-4.8l0,0c-3.2-2.4-5.5-4.6-6.8-6.5c-1.3-1.9-1.9-4.1-1.9-6.6l0,0c0-3.3,1-5.9,3-7.8
							c2-1.8,4.9-2.7,8.7-2.7l0,0c3.8,0,6.6,0.9,8.5,2.7c1.9,1.8,2.9,4.5,2.9,7.9l0,0v1.7h-7.4v-2.2c0-1.4-0.3-2.5-1-3.2
							c-0.7-0.7-1.6-1-2.9-1l0,0c-2.6,0-3.9,1.3-3.9,4l0,0c0,1.5,0.5,3,1.5,4.3c1,1.3,2.8,2.9,5.3,4.8l0,0c3.3,2.4,5.5,4.6,6.8,6.6
							c1.2,2,1.9,4.3,1.9,6.9l0,0c0,3.5-1,6.1-3,8C-44.9-250.6-47.9-249.6-51.7-249.6L-51.7-249.6z"/>
					</g>
				</g>
			</g>
		</g>
		<g transform="matrix(1,0,0,1,26.34716486354921,0)">
			<g id="icon-0">
				<path class="st1" d="M-80.2,96.5h-147.6c-7.7,0-14-6.3-14-14V-53c0-7.7,6.3-14,14-14h147.6c7.7,0,14,6.3,14,14V82.5
					C-66.2,90.3-72.5,96.5-80.2,96.5z"/>
				<g transform="matrix(1,0,0,1,98.1649319221905,70.53846792819559)">
					<g>
						<ellipse class="st0" cx="-264" cy="-91.2" rx="3.7" ry="4.1"/>
						<ellipse class="st0" cx="-240.4" cy="-91.2" rx="3.7" ry="4.1"/>
						<path class="st0" d="M-284.7-109.4v38.1h28.6v3.2l-28.6,0v55.8h16.6l12.6-13.7l-7.3-7.9l7.3-7.9l-2.1-2.3l-9.4,10.2l4.1,4.5
							l-8.3,9h-6.1v-39.6h50.1v39.6h-6.1l-8.3-9l4.1-4.5l-9.4-10.2l-2.1,2.3l7.3,7.9l-7.3,7.9l12.6,13.7h16.6V-68l-28.6,0v-3.2h28.6
							v-38.1H-284.7z M-227.1-79.4h-50.1v-22.5h50.1V-79.4z"/>
						<polygon class="st0" points="-258.3,-33.8 -252.2,-40.4 -246.1,-33.8 -252.2,-27.2 						"/>
					</g>
				</g>
			</g>
		</g>
	</g>
	<rect x="-215.5" y="-72.9" class="st2" width="175.6" height="247.2"/>
</g>
</svg>
