<svg width="158" height="175" viewBox="0 0 158 175" fill="none" xmlns="http://www.w3.org/2000/svg">
<circle cx="79" cy="86.8668" r="79" fill="url(#paint0_linear_326_105)"/>
<g filter="url(#filter0_d_326_105)">
<path d="M5.17853 50.0747C3.64852 45.9298 5.76831 41.3294 9.91322 39.7994L93.4065 8.97951C97.5515 7.4495 102.152 9.5693 103.682 13.7142L144.544 124.413C146.074 128.558 143.954 133.159 139.809 134.689L56.3162 165.508C52.1713 167.038 47.5708 164.919 46.0408 160.774L5.17853 50.0747Z" fill="url(#paint1_linear_326_105)"/>
</g>
<g filter="url(#filter1_d_326_105)">
<path d="M24 24.8668C24 20.4485 27.5817 16.8668 32 16.8668H82C110.167 16.8668 133 39.7002 133 67.8668V147.867C133 152.285 129.418 155.867 125 155.867H32C27.5817 155.867 24 152.285 24 147.867V24.8668Z" fill="url(#paint2_linear_326_105)"/>
</g>
<path d="M81 16.8668H100V25.8668H81V16.8668Z" fill="url(#paint3_linear_326_105)"/>
<path d="M124 66.8668L124 43.8668L133 43.8668L133 66.8668L124 66.8668Z" fill="url(#paint4_linear_326_105)"/>
<mask id="mask0_326_105" style="mask-type:alpha" maskUnits="userSpaceOnUse" x="94" y="12" width="46" height="46">
<path d="M94.0177 57.9302L94.0173 12.0113L139.04 48.9023L94.0177 57.9302Z" fill="#D9D9D9"/>
</mask>
<g mask="url(#mask0_326_105)">
<g filter="url(#filter2_d_326_105)">
<path d="M99.999 16.8663H132.999V43.8663H104.999C102.238 43.8663 99.999 41.6278 99.999 38.8663V16.8663Z" fill="white"/>
</g>
</g>
<rect x="36" y="29.8668" width="70" height="4" rx="2" fill="white"/>
<rect x="36" y="41.8668" width="51" height="4" rx="2" fill="white"/>
<rect x="36" y="59.8668" width="86" height="4" rx="2" fill="white"/>
<rect x="36" y="68.8668" width="86" height="4" rx="2" fill="white"/>
<rect x="36" y="77.8668" width="86" height="4" rx="2" fill="white"/>
<rect x="36" y="86.8668" width="33" height="4" rx="2" fill="white"/>
<rect x="88" y="86.8668" width="33" height="4" rx="2" fill="white"/>
<rect x="36" y="104.867" width="24" height="4" rx="2" fill="white"/>
<rect x="36" y="123.867" width="29" height="4" rx="2" fill="white"/>
<rect x="36" y="113.867" width="70" height="4" rx="2" fill="white"/>
<rect x="109" y="113.867" width="13" height="4" rx="2" fill="white"/>
<rect x="70" y="123.867" width="13" height="4" rx="2" fill="white"/>
<rect x="72" y="86.8668" width="13" height="4" rx="2" fill="white"/>
<rect x="63" y="104.867" width="59" height="4" rx="2" fill="white"/>
<rect x="36" y="95.8668" width="78" height="4" rx="2" fill="white"/>
<g filter="url(#filter3_d_326_105)">
<circle cx="78.5" cy="86.5" r="29.5" fill="url(#paint5_linear_326_105)"/>
</g>
<path fill-rule="evenodd" clip-rule="evenodd" d="M79 66C77.2257 66 74.2609 66.6791 71.4709 67.435C68.6166 68.2038 65.7392 69.1134 64.0472 69.6644C63.3397 69.8972 62.7126 70.3241 62.2377 70.8962C61.7628 71.4682 61.4595 72.1621 61.3626 72.8982C59.83 84.3706 63.3863 92.8729 67.7012 98.4976C69.5309 100.904 71.7126 103.023 74.1734 104.783C75.166 105.483 76.0866 106.019 76.8683 106.385C77.5883 106.723 78.3623 107 79 107C79.6377 107 80.4091 106.723 81.1317 106.385C82.0741 105.929 82.9757 105.393 83.8266 104.783C86.2874 103.023 88.4691 100.904 90.2988 98.4976C94.6137 92.8729 98.17 84.3706 96.6374 72.8982C96.5407 72.1618 96.2375 71.4675 95.7626 70.895C95.2877 70.3225 94.6605 69.8951 93.9528 69.6618C91.4966 68.8593 89.0213 68.1159 86.5291 67.4324C83.7391 66.6816 80.7743 66 79 66ZM79 78.8125C79.9109 78.8111 80.7929 79.1311 81.4897 79.7157C82.1866 80.3003 82.6534 81.1118 82.8074 82.0064C82.9614 82.9011 82.7926 83.8212 82.3311 84.6038C81.8696 85.3864 81.145 85.981 80.2857 86.2822L81.2757 91.3816C81.3117 91.567 81.3061 91.7581 81.2594 91.9412C81.2126 92.1243 81.1257 92.2948 81.0051 92.4405C80.8844 92.5862 80.7329 92.7035 80.5614 92.784C80.3899 92.8646 80.2027 92.9063 80.0131 92.9062H77.9869C77.7975 92.9059 77.6106 92.8639 77.4394 92.7832C77.2682 92.7025 77.117 92.5852 76.9967 92.4395C76.8763 92.2938 76.7897 92.1235 76.7431 91.9406C76.6964 91.7577 76.6909 91.5668 76.7269 91.3816L77.7143 86.2822C76.855 85.981 76.1304 85.3864 75.6689 84.6038C75.2074 83.8212 75.0386 82.9011 75.1926 82.0064C75.3466 81.1118 75.8134 80.3003 76.5103 79.7157C77.2071 79.1311 78.0891 78.8111 79 78.8125Z" fill="white"/>
<defs>
<filter id="filter0_d_326_105" x="0.681641" y="8.48236" width="148.359" height="165.523" filterUnits="userSpaceOnUse" color-interpolation-filters="sRGB">
<feFlood flood-opacity="0" result="BackgroundImageFix"/>
<feColorMatrix in="SourceAlpha" type="matrix" values="0 0 0 0 0 0 0 0 0 0 0 0 0 0 0 0 0 0 127 0" result="hardAlpha"/>
<feOffset dy="4"/>
<feGaussianBlur stdDeviation="2"/>
<feComposite in2="hardAlpha" operator="out"/>
<feColorMatrix type="matrix" values="0 0 0 0 0 0 0 0 0 0 0 0 0 0 0 0 0 0 0.25 0"/>
<feBlend mode="normal" in2="BackgroundImageFix" result="effect1_dropShadow_326_105"/>
<feBlend mode="normal" in="SourceGraphic" in2="effect1_dropShadow_326_105" result="shape"/>
</filter>
<filter id="filter1_d_326_105" x="20" y="16.8668" width="117" height="147" filterUnits="userSpaceOnUse" color-interpolation-filters="sRGB">
<feFlood flood-opacity="0" result="BackgroundImageFix"/>
<feColorMatrix in="SourceAlpha" type="matrix" values="0 0 0 0 0 0 0 0 0 0 0 0 0 0 0 0 0 0 127 0" result="hardAlpha"/>
<feOffset dy="4"/>
<feGaussianBlur stdDeviation="2"/>
<feComposite in2="hardAlpha" operator="out"/>
<feColorMatrix type="matrix" values="0 0 0 0 0 0 0 0 0 0 0 0 0 0 0 0 0 0 0.25 0"/>
<feBlend mode="normal" in2="BackgroundImageFix" result="effect1_dropShadow_326_105"/>
<feBlend mode="normal" in="SourceGraphic" in2="effect1_dropShadow_326_105" result="shape"/>
</filter>
<filter id="filter2_d_326_105" x="95.999" y="16.8663" width="41" height="35" filterUnits="userSpaceOnUse" color-interpolation-filters="sRGB">
<feFlood flood-opacity="0" result="BackgroundImageFix"/>
<feColorMatrix in="SourceAlpha" type="matrix" values="0 0 0 0 0 0 0 0 0 0 0 0 0 0 0 0 0 0 127 0" result="hardAlpha"/>
<feOffset dy="4"/>
<feGaussianBlur stdDeviation="2"/>
<feComposite in2="hardAlpha" operator="out"/>
<feColorMatrix type="matrix" values="0 0 0 0 0 0 0 0 0 0 0 0 0 0 0 0 0 0 0.2 0"/>
<feBlend mode="normal" in2="BackgroundImageFix" result="effect1_dropShadow_326_105"/>
<feBlend mode="normal" in="SourceGraphic" in2="effect1_dropShadow_326_105" result="shape"/>
</filter>
<filter id="filter3_d_326_105" x="45" y="57" width="67" height="67" filterUnits="userSpaceOnUse" color-interpolation-filters="sRGB">
<feFlood flood-opacity="0" result="BackgroundImageFix"/>
<feColorMatrix in="SourceAlpha" type="matrix" values="0 0 0 0 0 0 0 0 0 0 0 0 0 0 0 0 0 0 127 0" result="hardAlpha"/>
<feOffset dy="4"/>
<feGaussianBlur stdDeviation="2"/>
<feComposite in2="hardAlpha" operator="out"/>
<feColorMatrix type="matrix" values="0 0 0 0 0 0 0 0 0 0 0 0 0 0 0 0 0 0 0.25 0"/>
<feBlend mode="normal" in2="BackgroundImageFix" result="effect1_dropShadow_326_105"/>
<feBlend mode="normal" in="SourceGraphic" in2="effect1_dropShadow_326_105" result="shape"/>
</filter>
<linearGradient id="paint0_linear_326_105" x1="158" y1="86.8668" x2="5.029e-08" y2="86.8668" gradientUnits="userSpaceOnUse">
<stop stop-color="#3838B4"/>
<stop offset="1" stop-color="#171793"/>
</linearGradient>
<linearGradient id="paint1_linear_326_105" x1="124.113" y1="69.0637" x2="25.6097" y2="105.424" gradientUnits="userSpaceOnUse">
<stop stop-color="#FFCC71"/>
<stop offset="1" stop-color="#FFAC12"/>
</linearGradient>
<linearGradient id="paint2_linear_326_105" x1="133" y1="86.3668" x2="24" y2="86.3668" gradientUnits="userSpaceOnUse">
<stop stop-color="#FFCC71"/>
<stop offset="1" stop-color="#FFAC12"/>
</linearGradient>
<linearGradient id="paint3_linear_326_105" x1="100" y1="20.8668" x2="81" y2="20.8668" gradientUnits="userSpaceOnUse">
<stop stop-color="#FEC051"/>
<stop offset="1" stop-color="#FFBD43"/>
</linearGradient>
<linearGradient id="paint4_linear_326_105" x1="133" y1="54.3668" x2="124" y2="54.3668" gradientUnits="userSpaceOnUse">
<stop stop-color="#FFCC71"/>
<stop offset="1" stop-color="#FFC969"/>
</linearGradient>
<linearGradient id="paint5_linear_326_105" x1="108" y1="86.5" x2="49" y2="86.5" gradientUnits="userSpaceOnUse">
<stop stop-color="#3838B4"/>
<stop offset="1" stop-color="#171793"/>
</linearGradient>
</defs>
</svg>
