<svg xmlns="http://www.w3.org/2000/svg" width="496" height="553" viewBox="0 0 496 553" fill="none">
<path d="M302.221 187.53L199.287 18.3391C192.582 6.90193 180.553 0 167.342 0H37.3918C8.79892 0 -9.14558 30.7622 4.85507 55.6084C30.8845 101.554 67.5622 140.795 111.93 169.585C126.917 181.22 145.453 187.53 164.581 187.53H302.221Z" fill="#0074BA"/>
<path d="M457.804 0H327.855C314.643 0 302.614 6.90193 295.909 18.3391L192.975 187.53H330.812C349.94 187.53 368.279 181.22 383.463 169.585C427.831 140.795 464.509 101.751 490.538 55.6084C504.342 30.7622 486.397 0 457.804 0Z" fill="#00A6ED"/>
<path d="M247.444 552.136C356.785 552.136 445.425 461.29 445.425 349.226C445.425 237.161 356.785 146.315 247.444 146.315C138.1 146.315 49.4619 237.161 49.4619 349.226C49.4619 461.29 138.1 552.136 247.444 552.136Z" fill="#FF8049"/>
<path d="M277.879 344.849C284.804 349.711 288.266 358.035 288.266 369.822V391.038C288.266 410.486 279.131 420.21 260.862 420.21H234.784C216.515 420.21 207.38 410.486 207.38 391.038V379.325H235.005V392.364C235.005 393.543 235.373 394.574 236.11 395.458C236.994 396.342 238.025 396.784 239.204 396.784H256.663C257.842 396.784 258.799 396.342 259.536 395.458C260.42 394.574 260.862 393.543 260.862 392.364V361.866C260.862 360.687 260.42 359.656 259.536 358.772C258.799 357.888 257.842 357.446 256.663 357.446H233.9V333.578H255.337C256.516 333.578 257.473 333.136 258.21 332.252C259.094 331.368 259.536 330.337 259.536 329.158V301.312C259.536 300.133 259.094 299.102 258.21 298.218C257.473 297.334 256.516 296.892 255.337 296.892H240.53C239.351 296.892 238.32 297.334 237.436 298.218C236.699 299.102 236.331 300.133 236.331 301.312V315.456H208.706V301.975C208.706 282.527 217.841 272.803 236.11 272.803H259.536C277.805 272.803 286.94 282.527 286.94 301.975V320.981C286.94 332.473 283.92 340.429 277.879 344.849Z" fill="#641800"/>
<path d="M247.643 527.684C201.106 527.684 157.329 509.148 124.596 475.428C91.6651 441.709 73.5234 396.946 73.5234 349.225C73.5234 301.505 91.6651 256.742 124.596 223.022C192.43 153.412 302.857 153.412 370.889 223.022C438.723 292.631 438.723 405.82 370.889 475.428C337.76 509.148 293.984 527.684 247.643 527.684ZM247.446 195.021C208.994 195.021 170.344 210.008 141.16 240.178C112.765 269.362 97.1865 308.012 97.1865 349.225C97.1865 390.439 112.765 429.088 141.16 458.273C169.555 487.457 207.416 503.43 247.446 503.43C287.673 503.43 325.337 487.457 353.733 458.273C412.299 398.129 412.299 300.322 353.733 240.178C324.548 210.008 286.096 195.021 247.446 195.021Z" fill="#AC2900"/>
</svg>